<?xml version="1.0" standalone="no"?><!DOCTYPE svg PUBLIC "-//W3C//DTD SVG 1.1//EN" "http://www.w3.org/Graphics/SVG/1.1/DTD/svg11.dtd"><svg t="1778086710788" class="icon" viewBox="0 0 1024 1024" version="1.1" xmlns="http://www.w3.org/2000/svg" p-id="14421" xmlns:xlink="http://www.w3.org/1999/xlink" width="200" height="200"><path d="M350 349.9c23.9-23.8 23.9-63.2 0-87.6-23.9-24.4-63.3-23.8-87.2 0.6-23.9 24.4-23.9 63.2 0 87.6 23.9 23.8 63.3 23.8 87.2-0.6zM64 777.8c0 30.9 25.1 56 56.1 56s56.1-25.1 56.1-56-25.1-56-56.1-56-56.1 25.1-56.1 56z m746.9-573.9s0 0.6 0 0c0 0.6 0 0.6 0 0-0.6 0.6-0.6 0.6-0.6 1.2s-0.6 0.6-0.6 1.2c0 0 0 0.6-0.6 0.6-0.6 1.2-1.8 2.4-1.8 3.6-0.6 0.6-0.6 1.8-0.6 2.4-24.5 65.6-61.5 143.6-110.4 198.5-123.6 5.4-204.2-27.4-307.5-52.4-2.4-0.6-4.2-1.2-6-1.2-14.3-4.8-28.7 10.1-24.5 24.4 0.6 1.8 0.6 4.2 1.2 6 25.1 103.1 57.9 183 52.5 306.9-54.9 49.5-132.5 86.4-198.8 110.2-3 0.6-6 2.4-8.9 4.8-7.2 7.1-7.2 18.5 0 25.6 2.4 2.4 5.4 4.2 8.4 4.8 46.6 19.1 231 90 299.1 116.2 13.7 6.6 31 3.6 42.4-7.7 4.8-4.8 7.8-10.1 9.6-16.1 51.3-118 134.3-219.3 237.6-293.8l1.2-1.2c3.6-3 7.8-5.4 11.3-8.3 1.2-0.6 1.8-1.2 3-1.8l10.8-7.2c1.2-0.6 2.4-1.8 3.6-2.4 3.6-2.4 7.2-4.8 10.7-6.6 1.2-0.6 2.4-1.8 4.2-2.4 3.6-2.4 7.2-4.2 10.7-6.6 1.2-0.6 2.4-1.8 3.6-2.4 3.6-2.4 7.2-4.2 11.3-6.6 1.2-0.6 2.4-1.2 3-1.8 4.2-2.4 8.4-4.2 12.5-6.6 0.6 0 1.2-0.6 1.2-0.6 14.3-7.7 29.3-14.9 44.2-20.9 6-1.8 11.3-4.8 16.1-9.5 11.9-11.9 14.3-29.2 7.2-42.9-26.3-68.5-96.7-252.1-115.8-298-0.6-3-2.4-6-4.8-8.3-6-7.7-17.4-7.7-24.5-1.1z m8.3-123.4c-22.1-22.1-57.9-22.1-80 0-20.9 20.9-22.1 53-3.6 75.1l0.6 0.6c1.2 1.2 1.8 2.4 3 3.6 22.1 22 57.9 22 79.4 0 20.9-20.9 22.1-53 3.6-75.1l-0.6-0.6c0-1.2-1.2-2.4-2.4-3.6z m0 0" fill="#666666" p-id="14422"></path></svg>